<svg xmlns="http://www.w3.org/2000/svg" viewBox="0 0 100 100">
  <!-- Laurel Wreath -->
  <g fill="#ccaa49">
    <path d="M50 85 C30 85 15 70 15 45 C15 35 20 25 25 15 L28 17 C23 26 19 35 19 45 C19 67 32 81 50 81 L50 85 Z" />
    <path d="M50 85 C70 85 85 70 85 45 C85 35 80 25 75 15 L72 17 C77 26 81 35 81 45 C81 67 68 81 50 81 L50 85 Z" />
    <!-- Leaves Left -->
    <ellipse cx="20" cy="30" rx="4" ry="8" transform="rotate(-30 20 30)" />
    <ellipse cx="16" cy="40" rx="4" ry="8" transform="rotate(-40 16 40)" />
    <ellipse cx="15" cy="50" rx="4" ry="8" transform="rotate(-50 15 50)" />
    <ellipse cx="17" cy="60" rx="4" ry="8" transform="rotate(-60 17 60)" />
    <ellipse cx="22" cy="70" rx="4" ry="8" transform="rotate(-70 22 70)" />
    <ellipse cx="30" cy="78" rx="4" ry="8" transform="rotate(-80 30 78)" />
    <!-- Leaves Right -->
    <ellipse cx="80" cy="30" rx="4" ry="8" transform="rotate(30 80 30)" />
    <ellipse cx="84" cy="40" rx="4" ry="8" transform="rotate(40 84 40)" />
    <ellipse cx="85" cy="50" rx="4" ry="8" transform="rotate(50 85 50)" />
    <ellipse cx="83" cy="60" rx="4" ry="8" transform="rotate(60 83 60)" />
    <ellipse cx="78" cy="70" rx="4" ry="8" transform="rotate(70 78 70)" />
    <ellipse cx="70" cy="78" rx="4" ry="8" transform="rotate(80 70 78)" />
  </g>
</svg>
